<svg xmlns="http://www.w3.org/2000/svg" width="400" height="400" viewBox="0 0 400 400" version="1.1"><path d="M 114.922 34.274 C 105.376 40.707, 103.491 52.487, 110.646 60.991 C 114.281 65.311, 118.066 67, 124.112 67 C 137.913 67, 146.153 53.186, 139.675 40.907 C 136.558 34.999, 131.305 32.038, 123.898 32.016 C 119.708 32.004, 117.445 32.573, 114.922 34.274 M 55.020 60.284 C 47.306 64.188, 49.944 75, 58.611 75 C 66.654 75, 69.123 64.183, 61.928 60.463 C 58.516 58.698, 58.172 58.689, 55.020 60.284 M 77.418 78.969 C 74.445 80.172, 70.283 85.434, 69.506 88.973 C 68.045 95.625, 73.404 103.235, 80.486 104.563 C 87.407 105.862, 96 98.674, 96 91.587 C 96 82.406, 85.891 75.541, 77.418 78.969 M 136.942 78.948 C 129.574 81.184, 125 85.219, 125 89.483 C 125 93.233, 126.277 94.965, 131.212 97.905 C 139.089 102.597, 144 111.842, 144 121.977 C 144 135.073, 137.081 144.439, 123.739 149.403 C 121.120 150.377, 118.532 152.005, 117.989 153.021 C 117.445 154.037, 117 158.077, 117 161.999 C 117 168.633, 117.201 169.298, 119.890 171.561 C 127.171 177.688, 127.617 188.206, 120.904 195.488 L 116.963 199.764 117.231 223.132 L 117.500 246.500 120.419 238.500 C 129.404 213.876, 148.463 168.003, 155.631 153.750 L 159.025 147 173.492 147 L 187.959 147 190.026 151.051 C 193.814 158.477, 205.097 184.285, 212.518 202.500 C 222.375 226.695, 243 282.112, 243 284.402 C 243 284.731, 235.610 285, 226.578 285 L 210.155 285 208.941 281.250 C 208.274 279.188, 205.942 272.438, 203.760 266.250 L 199.792 255 172.991 255 L 146.189 255 143.232 263.250 C 141.605 267.788, 139.276 274.538, 138.056 278.250 L 135.837 285 126.418 285 L 117 285 117 312.322 C 117 342.957, 117.442 345.652, 123.666 352.923 C 130.291 360.663, 141.310 364.325, 150.987 362.003 C 155.922 360.819, 159.554 358.552, 256.747 295.962 L 272.994 285.500 265.997 285.206 L 259 284.912 259 232.456 L 259 180 273.990 180 L 288.981 180 289.240 227.448 L 289.500 274.897 314.752 258.621 C 328.640 249.669, 341.137 241.280, 342.523 239.978 C 349.154 233.749, 351.961 221.624, 349.083 211.647 C 346.804 203.749, 340.970 198.748, 313.500 181.147 C 299.750 172.337, 287.749 164.841, 286.831 164.488 C 285.913 164.136, 284.011 164.602, 282.604 165.524 C 280.920 166.627, 277.970 167.200, 273.973 167.200 C 266.304 167.200, 260.773 163.916, 257.943 157.684 C 252.367 145.402, 260.632 132.816, 274.323 132.741 L 279.500 132.713 276 131.246 C 270.371 128.887, 259.691 130.020, 251.520 133.844 L 244.762 137.006 200.631 108.659 C 176.359 93.069, 154.970 79.792, 153.101 79.156 C 149.312 77.867, 140.862 77.758, 136.942 78.948 M 109.030 103.059 C 93.987 109.391, 91.503 129.054, 104.583 138.268 C 116.849 146.909, 134.034 138.747, 135.757 123.462 C 136.449 117.325, 132.305 108.892, 126.811 105.256 C 122.376 102.321, 113.413 101.214, 109.030 103.059 M 58.615 131.088 C 48.241 139.249, 53.465 155, 66.546 155 C 71.622 155, 75.681 152.291, 78.104 147.286 C 80.334 142.678, 80.055 138.539, 77.220 134.214 C 73.717 128.867, 63.600 127.167, 58.615 131.088 M 105.321 177.189 C 102.510 178.548, 100.701 182.960, 101.557 186.370 C 102.988 192.072, 110.245 193.846, 114.545 189.545 C 121.040 183.051, 113.656 173.159, 105.321 177.189 M 163 204.153 C 157.775 217.922, 153.350 229.595, 153.167 230.094 C 152.975 230.616, 161.134 231, 172.417 231 C 183.675 231, 192 230.609, 192 230.080 C 192 227.847, 174.558 181.394, 173.125 179.809 C 172.781 179.429, 168.225 190.384, 163 204.153" stroke="none" fill="#1a1a1a" fill-rule="evenodd"/><path d="M 21.404 1.827 C 15.282 3.943, 9.331 8.472, 5.604 13.850 C -0.315 22.391, -0 11.925, -0 199.977 C -0 352.701, 0.178 373.237, 1.543 377.834 C 3.714 385.144, 10.253 392.797, 17.487 396.497 L 23.359 399.500 199.929 399.500 L 376.500 399.500 381.500 397.196 C 387.870 394.260, 395.382 386.295, 397.522 380.207 C 398.433 377.618, 399.587 374.719, 400.089 373.764 C 401.290 371.474, 401.311 24.690, 400.110 25.432 C 399.620 25.735, 398.937 24.476, 398.591 22.635 C 397.698 17.873, 392.503 10.476, 387.218 6.441 C 378.211 -0.437, 390.903 -0.003, 199.568 0.033 C 36.948 0.063, 26.192 0.172, 21.404 1.827 M 0.489 200 C 0.489 295.975, 0.606 335.238, 0.750 287.250 C 0.894 239.263, 0.894 160.738, 0.750 112.750 C 0.606 64.763, 0.489 104.025, 0.489 200 M 114.922 34.274 C 105.376 40.707, 103.491 52.487, 110.646 60.991 C 114.281 65.311, 118.066 67, 124.112 67 C 137.913 67, 146.153 53.186, 139.675 40.907 C 136.558 34.999, 131.305 32.038, 123.898 32.016 C 119.708 32.004, 117.445 32.573, 114.922 34.274 M 55.020 60.284 C 47.306 64.188, 49.944 75, 58.611 75 C 66.654 75, 69.123 64.183, 61.928 60.463 C 58.516 58.698, 58.172 58.689, 55.020 60.284 M 77.418 78.969 C 74.445 80.172, 70.283 85.434, 69.506 88.973 C 68.045 95.625, 73.404 103.235, 80.486 104.563 C 87.407 105.862, 96 98.674, 96 91.587 C 96 82.406, 85.891 75.541, 77.418 78.969 M 136.942 78.948 C 129.574 81.184, 125 85.219, 125 89.483 C 125 93.233, 126.277 94.965, 131.212 97.905 C 139.089 102.597, 144 111.842, 144 121.977 C 144 135.073, 137.081 144.439, 123.739 149.403 C 121.120 150.377, 118.532 152.005, 117.989 153.021 C 117.445 154.037, 117 158.077, 117 161.999 C 117 168.633, 117.201 169.298, 119.890 171.561 C 127.171 177.688, 127.617 188.206, 120.904 195.488 L 116.963 199.764 117.231 223.132 L 117.500 246.500 120.419 238.500 C 129.404 213.876, 148.463 168.003, 155.631 153.750 L 159.025 147 173.492 147 L 187.959 147 190.026 151.051 C 193.814 158.477, 205.097 184.285, 212.518 202.500 C 222.375 226.695, 243 282.112, 243 284.402 C 243 284.731, 235.610 285, 226.578 285 L 210.155 285 208.941 281.250 C 208.274 279.188, 205.942 272.438, 203.760 266.250 L 199.792 255 172.991 255 L 146.189 255 143.232 263.250 C 141.605 267.788, 139.276 274.538, 138.056 278.250 L 135.837 285 126.418 285 L 117 285 117 312.322 C 117 342.957, 117.442 345.652, 123.666 352.923 C 130.291 360.663, 141.310 364.325, 150.987 362.003 C 155.922 360.819, 159.554 358.552, 256.747 295.962 L 272.994 285.500 265.997 285.206 L 259 284.912 259 232.456 L 259 180 273.990 180 L 288.981 180 289.240 227.448 L 289.500 274.897 314.752 258.621 C 328.640 249.669, 341.137 241.280, 342.523 239.978 C 349.154 233.749, 351.961 221.624, 349.083 211.647 C 346.804 203.749, 340.970 198.748, 313.500 181.147 C 299.750 172.337, 287.749 164.841, 286.831 164.488 C 285.913 164.136, 284.011 164.602, 282.604 165.524 C 280.920 166.627, 277.970 167.200, 273.973 167.200 C 266.304 167.200, 260.773 163.916, 257.943 157.684 C 252.367 145.402, 260.632 132.816, 274.323 132.741 L 279.500 132.713 276 131.246 C 270.371 128.887, 259.691 130.020, 251.520 133.844 L 244.762 137.006 200.631 108.659 C 176.359 93.069, 154.970 79.792, 153.101 79.156 C 149.312 77.867, 140.862 77.758, 136.942 78.948 M 109.030 103.059 C 93.987 109.391, 91.503 129.054, 104.583 138.268 C 116.849 146.909, 134.034 138.747, 135.757 123.462 C 136.449 117.325, 132.305 108.892, 126.811 105.256 C 122.376 102.321, 113.413 101.214, 109.030 103.059 M 58.615 131.088 C 48.241 139.249, 53.465 155, 66.546 155 C 71.622 155, 75.681 152.291, 78.104 147.286 C 80.334 142.678, 80.055 138.539, 77.220 134.214 C 73.717 128.867, 63.600 127.167, 58.615 131.088 M 105.321 177.189 C 102.510 178.548, 100.701 182.960, 101.557 186.370 C 102.988 192.072, 110.245 193.846, 114.545 189.545 C 121.040 183.051, 113.656 173.159, 105.321 177.189 M 163 204.153 C 157.775 217.922, 153.350 229.595, 153.167 230.094 C 152.975 230.616, 161.134 231, 172.417 231 C 183.675 231, 192 230.609, 192 230.080 C 192 227.847, 174.558 181.394, 173.125 179.809 C 172.781 179.429, 168.225 190.384, 163 204.153" stroke="none" fill="#f3f3f4" fill-rule="evenodd"/></svg>